<svg width="1259" height="210" viewBox="0 0 1259 210" fill="none" xmlns="http://www.w3.org/2000/svg">
<path d="M79.6863 19.8738C80.8239 19.8622 81.9615 19.8506 83.1336 19.8387C103.624 19.9088 122.096 28.7993 137.249 42.2488C138.239 43.7338 138.239 43.7338 139.249 45.2488C143.152 44.6912 144.921 42.9051 147.686 40.1863C156.932 31.6592 167.345 26.1563 179.249 22.2488C180.274 21.8827 181.298 21.5167 182.354 21.1395C203.597 16.2816 225.919 21.0678 244.249 32.2488C256.301 40.1181 264.978 49.8514 272.249 62.2488C272.628 62.8689 273.007 63.4889 273.397 64.1277C275.964 68.7176 277.423 73.6751 278.936 78.6863C279.259 79.7423 279.259 79.7423 279.587 80.8196C282.143 89.6599 282.395 98.3961 282.362 107.552C282.363 108.646 282.363 109.739 282.363 110.866C282.362 114.453 282.354 118.041 282.346 121.628C282.345 124.126 282.343 126.624 282.342 129.122C282.339 135.008 282.331 140.894 282.321 146.78C282.309 154.145 282.303 161.51 282.298 168.876C282.287 182 282.269 195.124 282.249 208.249C269.049 208.249 255.849 208.249 242.249 208.249C242.239 204.787 242.23 201.326 242.221 197.759C242.187 186.304 242.131 174.849 242.065 163.393C242.025 156.45 241.993 149.507 241.978 142.564C241.963 135.859 241.928 129.155 241.881 122.451C241.866 119.897 241.858 117.343 241.857 114.789C241.855 111.203 241.827 107.618 241.795 104.033C241.8 102.984 241.805 101.935 241.81 100.855C241.651 89.546 237.267 79.9016 229.694 71.5301C220.051 62.4864 208.392 60.7607 195.745 60.9754C185.154 61.4181 177.284 67.07 170.061 74.4988C164.457 83.0021 161.059 89.593 161.202 99.8121C161.215 101.38 161.227 102.948 161.24 104.516C161.251 105.759 161.251 105.759 161.264 107.027C161.306 112.355 161.294 117.684 161.294 123.012C161.297 127.688 161.317 132.362 161.376 137.037C161.431 141.568 161.437 146.097 161.411 150.628C161.41 152.349 161.426 154.069 161.461 155.789C161.718 169.226 161.718 169.226 158.049 174.278C155.555 176.545 153.075 178.421 150.249 180.249C149.272 181.061 148.295 181.873 147.288 182.71C146.491 183.341 145.695 183.973 144.874 184.624C140.177 188.419 135.713 192.406 131.308 196.532C124.109 203.249 124.109 203.249 121.249 203.249C121.247 202.406 121.247 202.406 121.244 201.546C121.207 187.831 121.148 174.116 121.065 160.401C121.026 153.768 120.993 147.136 120.978 140.503C120.963 134.097 120.928 127.691 120.881 121.285C120.866 118.846 120.858 116.407 120.857 113.969C120.855 110.541 120.827 107.114 120.795 103.687C120.8 102.689 120.805 101.69 120.81 100.662C120.638 88.9268 116.505 79.7037 108.401 71.3426C98.7617 62.2972 88.5231 60.7534 75.741 60.9793C65.6817 61.4017 58.3435 66.3447 51.2488 73.2488C42.9357 82.8121 40.7993 92.5074 40.8165 104.941C40.8063 106.064 40.7961 107.187 40.7856 108.344C40.7556 112.023 40.7462 115.702 40.7371 119.382C40.7203 121.946 40.7021 124.51 40.6827 127.074C40.6402 133.112 40.6106 139.15 40.5874 145.188C40.5603 152.068 40.5163 158.949 40.4711 165.829C40.3785 179.969 40.3089 194.109 40.2488 208.249C27.0488 208.249 13.8488 208.249 0.24884 208.249C0.20362 193.019 0.16681 177.789 0.145218 162.559C0.134924 155.487 0.120897 148.415 0.0979614 141.343C0.0758294 134.515 0.0642607 127.688 0.059082 120.86C0.0553924 118.258 0.0481951 115.656 0.037384 113.054C0.0228242 109.403 0.0208643 105.753 0.0217896 102.103C0.014599 101.032 0.00740845 99.9605 0 98.8571C0.01679 92.7181 0.616261 87.1695 2.24884 81.2488C2.52083 80.2434 2.79282 79.2379 3.07306 78.202C6.92887 66.1286 12.8202 55.7072 21.2488 46.2488C21.914 45.4896 22.5792 44.7303 23.2645 43.9481C37.9505 28.2014 58.3289 19.6568 79.6863 19.8738Z" fill="#A6CA37"/>
<path d="M770.249 0.24884C786.244 0.203612 802.239 0.166804 818.233 0.145216C825.661 0.134924 833.088 0.120903 840.516 0.0979614C846.993 0.0779639 853.471 0.0651089 859.948 0.0606633C863.374 0.0580667 866.801 0.052007 870.227 0.0373802C874.062 0.0228108 877.896 0.0208647 881.731 0.0217896C882.854 0.014599 883.978 0.00740845 885.135 0C904.358 0.0499937 919.562 7.22923 933.37 20.2488C944.665 32.3233 949.971 47.1069 949.856 63.4442C949.307 77.2572 945.099 89.473 936.007 99.9012C933.849 102.294 933.849 102.294 934.249 106.249C935.601 108.338 935.601 108.338 937.436 110.374C942.894 117.114 946.384 123.968 947.889 132.534C948.091 134.273 948.091 134.273 949.249 135.249C950.795 153.004 948.535 169.123 937.374 183.436C936.013 185.052 934.638 186.657 933.249 188.249C932.468 189.191 932.468 189.191 931.671 190.151C922.16 200.743 907.052 206.453 893.249 208.249C889.258 208.391 885.27 208.375 881.277 208.362C880.076 208.363 878.876 208.363 877.639 208.363C874.36 208.362 871.082 208.357 867.803 208.35C864.372 208.344 860.941 208.343 857.509 208.342C851.018 208.339 844.526 208.331 838.035 208.321C830.642 208.31 823.249 208.304 815.856 208.299C800.653 208.289 785.451 208.27 770.249 208.249C770.249 195.379 770.249 182.509 770.249 169.249C773.933 169.239 777.617 169.23 781.413 169.221C793.591 169.187 805.768 169.131 817.946 169.065C825.329 169.025 832.711 168.993 840.094 168.978C846.531 168.965 852.968 168.938 859.405 168.894C862.811 168.872 866.217 168.856 869.624 168.857C873.433 168.855 877.241 168.828 881.05 168.795C882.171 168.8 883.292 168.805 884.448 168.81C891.997 168.71 897.394 167.576 903.272 162.503C903.941 161.666 903.941 161.666 904.624 160.811C905.085 160.256 905.547 159.7 906.022 159.128C910.048 152.961 910.213 146.398 909.249 139.249C906.78 133.35 902.965 129.165 897.249 126.249C891.816 124.382 887.043 123.945 881.376 123.93C880.517 123.92 879.657 123.91 878.772 123.9C875.953 123.869 873.134 123.852 870.315 123.835C868.352 123.816 866.389 123.796 864.426 123.776C859.276 123.725 854.125 123.685 848.975 123.648C843.713 123.608 838.45 123.557 833.188 123.507C822.875 123.41 812.562 123.326 802.249 123.249C802.708 121.829 803.17 120.41 803.634 118.992C803.892 118.202 804.149 117.411 804.414 116.597C805.662 113.088 807.327 109.85 809.061 106.561C811.741 101.457 814.134 96.2704 816.388 90.9644C816.802 89.9936 816.802 89.9936 817.225 89.0032C817.901 87.4189 818.575 85.8339 819.249 84.2488C820.154 84.2474 821.059 84.246 821.991 84.2445C830.553 84.2266 839.114 84.1848 847.676 84.1168C852.077 84.0826 856.477 84.0574 860.878 84.0533C865.132 84.049 869.385 84.0203 873.639 83.9754C875.255 83.9625 876.871 83.9581 878.487 83.9627C888.741 83.985 897.763 83.5662 905.538 76.0301C909.53 69.2133 910.589 63.0786 909.249 55.2488C906.773 48.8993 902.429 45.3303 896.837 41.6704C891.649 39.615 886.81 39.8094 881.277 39.8165C880.076 39.8063 878.876 39.7961 877.639 39.7856C874.36 39.7606 871.082 39.7487 867.803 39.7427C864.372 39.7333 860.941 39.7071 857.509 39.6827C851.018 39.6391 844.526 39.6105 838.035 39.5874C830.642 39.5603 823.249 39.5164 815.856 39.4711C800.653 39.3783 785.451 39.3088 770.249 39.2488C770.249 26.3788 770.249 13.5088 770.249 0.24884Z" fill="#90BF40"/>
<path d="M662.249 23.2488C663.369 23.5157 664.489 23.7825 665.643 24.0574C686.225 29.6571 706.253 45.0894 717.249 63.2488C727.341 81.263 731.51 98.3707 731.796 119.014C731.806 119.744 731.817 120.473 731.828 121.224C731.881 125.072 731.92 128.919 731.949 132.767C731.976 135.93 732.032 139.09 732.113 142.252C732.212 146.104 732.261 149.955 732.275 153.809C732.289 155.265 732.319 156.721 732.367 158.176C732.721 169.485 732.721 169.485 729.057 173.876C726.542 175.897 724.008 177.585 721.249 179.249C720.223 180.101 719.218 180.981 718.253 181.901C712.901 186.911 707.41 191.665 701.702 196.264C699.664 197.913 697.67 199.598 695.686 201.311C693.249 203.249 693.249 203.249 691.249 203.249C691.243 201.391 691.243 201.391 691.238 199.495C691.201 187.785 691.143 176.075 691.065 164.364C691.026 158.345 690.993 152.326 690.978 146.306C690.963 140.49 690.928 134.674 690.881 128.858C690.866 126.646 690.858 124.434 690.857 122.222C690.843 104.446 689.271 89.8771 676.749 76.1238C665.434 65.4783 651.565 60.712 636.18 60.899C621.062 61.4362 608.894 67.4678 598.511 78.4363C590.023 88.9903 586.96 99.6433 586.93 112.888C586.915 114.44 586.915 114.44 586.9 116.024C586.869 119.422 586.852 122.82 586.835 126.218C586.816 128.583 586.796 130.948 586.776 133.313C586.725 139.52 586.685 145.728 586.648 151.936C586.608 158.277 586.557 164.618 586.507 170.96C586.41 183.389 586.327 195.819 586.249 208.249C573.049 208.249 559.849 208.249 546.249 208.249C546.158 194.591 546.085 180.934 546.042 167.276C546.021 160.933 545.993 154.59 545.947 148.247C545.903 142.113 545.88 135.979 545.869 129.845C545.862 127.518 545.848 125.19 545.826 122.862C545.561 93.3637 552.46 69.012 573.249 47.2488C573.789 46.634 574.329 46.0191 574.886 45.3856C596.478 21.7266 632.463 16.0592 662.249 23.2488Z" fill="#96C23D"/>
<path d="M1002.25 0.24884C1015.12 0.24884 1027.99 0.24884 1041.25 0.24884C1041.25 12.1288 1041.25 24.0088 1041.25 36.2488C1064.35 36.2488 1087.45 36.2488 1111.25 36.2488C1111.25 48.7888 1111.25 61.3288 1111.25 74.2488C1088.15 74.2488 1065.05 74.2488 1041.25 74.2488C1041.37 83.1176 1041.5 91.9863 1041.62 101.124C1041.66 103.904 1041.69 106.685 1041.73 109.549C1041.76 111.78 1041.8 114.01 1041.83 116.241C1041.85 117.946 1041.85 117.946 1041.87 119.685C1042.12 133.803 1045.08 145.827 1054.81 156.624C1062.77 164.005 1073.49 168.327 1084.2 168.565C1085.23 168.593 1085.23 168.593 1086.27 168.622C1088.83 168.69 1091.38 168.75 1093.94 168.811C1099.65 168.956 1105.36 169.1 1111.25 169.249C1111.25 182.119 1111.25 194.989 1111.25 208.249C1102.8 208.342 1102.8 208.342 1094.19 208.436C1092.44 208.464 1090.7 208.491 1088.9 208.519C1064.11 208.745 1043.74 200.706 1025.52 183.604C1009.08 166.54 1002.07 144.379 1002.14 121.153C1002.14 119.845 1002.14 118.537 1002.13 117.19C1002.13 113.62 1002.14 110.05 1002.15 106.481C1002.15 102.744 1002.15 99.0067 1002.16 95.2698C1002.16 88.201 1002.17 81.1322 1002.18 74.0634C1002.19 66.0126 1002.19 57.9619 1002.2 49.9111C1002.21 33.357 1002.23 16.8029 1002.25 0.24884Z" fill="#93C13F"/>
<path d="M477.186 43.8113C490.548 55.1672 499.669 69.73 505.249 86.2488C505.74 87.699 505.74 87.699 506.241 89.1785C508.44 96.4049 508.645 102.404 509.249 110.249C496.049 110.249 482.849 110.249 469.249 110.249C468.259 104.309 468.259 104.309 467.249 98.2488C462.436 84.9977 453.616 74.1431 441.249 67.2488C427.871 61.2388 412.105 58.3353 397.624 62.4363C396.149 62.998 394.689 63.6022 393.249 64.2488C392.437 64.5775 391.625 64.9063 390.788 65.2449C379.084 70.4487 368.758 80.5784 363.936 92.4988C363.366 94.0792 362.803 95.6626 362.249 97.2488C361.905 98.0274 361.56 98.806 361.206 99.6082C359.913 102.893 359.913 102.893 359.249 109.249C346.379 109.249 333.509 109.249 320.249 109.249C320.249 84.4924 330.59 63.9119 347.772 46.5613C352.244 42.214 356.952 38.5446 362.249 35.2488C362.795 34.9077 363.342 34.5666 363.905 34.2151C371.345 29.6255 378.812 25.688 387.249 23.2488C388.234 22.9511 389.219 22.6533 390.233 22.3465C421.56 14.2151 452.536 24.3066 477.186 43.8113Z" fill="#B6D130"/>
<path d="M320.249 120.249C333.119 120.249 345.989 120.249 359.249 120.249C360.569 125.529 361.889 130.809 363.249 136.249C369.897 150.603 379.665 159.951 394.249 166.249C407.165 170.883 424.843 170.258 437.378 164.796C442.013 162.298 446.193 159.61 450.249 156.249C450.945 155.7 451.641 155.151 452.358 154.585C456.97 150.527 459.796 145.904 462.561 140.499C463.05 139.552 463.05 139.552 463.548 138.587C466.498 132.468 467.519 127.17 469.249 120.249C482.119 120.249 494.989 120.249 508.249 120.249C508.249 133.186 508.249 133.186 506.249 139.999C505.919 141.147 505.919 141.147 505.582 142.317C498.311 166.124 480.804 186.184 459.249 198.249C436.161 210.179 409.501 212.467 384.604 205.182C357.288 195.174 337.564 176.365 325.327 150.284C321.303 140.573 320.249 130.679 320.249 120.249Z" fill="#6BAD50"/>
<path d="M1232.17 36.1512C1232.84 36.1522 1233.5 36.1532 1234.18 36.1543C1236.64 36.1595 1239.1 36.1734 1241.56 36.1864C1249.82 36.2173 1249.82 36.2173 1258.25 36.2489C1258.25 49.1189 1258.25 61.9889 1258.25 75.2489C1244.87 75.5614 1244.87 75.5614 1240.72 75.6368C1226.41 76.0628 1215.02 79.8519 1204.94 90.4364C1198.93 97.6166 1194.06 106.472 1194.22 115.939C1194.23 117.107 1194.25 118.276 1194.27 119.48C1194.28 120.746 1194.3 122.011 1194.32 123.315C1194.33 126.692 1194.34 130.069 1194.35 133.446C1194.35 136.973 1194.38 140.498 1194.45 144.024C1194.5 146.778 1194.53 149.528 1194.52 152.282C1194.51 154.87 1194.54 157.458 1194.62 160.045C1194.55 165.43 1194.33 168.891 1190.9 173.187C1188.12 175.741 1185.29 178.014 1182.25 180.249C1180.45 181.701 1178.66 183.158 1176.87 184.624C1175.98 185.346 1175.08 186.068 1174.16 186.811C1170.21 190.118 1166.47 193.62 1162.75 197.176C1159.76 200.005 1156.81 202.194 1153.25 204.249C1153.16 192.139 1153.08 180.029 1153.04 167.918C1153.02 162.294 1152.99 156.669 1152.95 151.044C1152.9 145.604 1152.88 140.164 1152.87 134.724C1152.86 132.661 1152.85 130.597 1152.83 128.534C1152.67 113.147 1153.56 98.6307 1161.12 84.8114C1161.47 84.148 1161.82 83.4846 1162.18 82.8011C1173.99 60.6801 1192.15 45.6574 1215.97 38.159C1221.47 36.6312 1226.47 36.11 1232.17 36.1512Z" fill="#A6CA36"/>
<path d="M770.249 0.24884C786.365 0.226278 802.48 0.207852 818.596 0.197028C826.079 0.191869 833.561 0.184833 841.044 0.173401C847.565 0.163443 854.086 0.156984 860.606 0.154752C864.06 0.153447 867.514 0.150373 870.967 0.14311C874.82 0.135074 878.673 0.13485 882.525 0.135315C883.674 0.13172 884.823 0.128124 886.006 0.12442C887.054 0.125795 888.101 0.12717 889.181 0.128586C890.092 0.127664 891.004 0.126742 891.943 0.125793C894.249 0.24884 894.249 0.24884 897.249 1.24884C897.249 1.90884 897.249 2.56884 897.249 3.24884C896.621 3.25307 895.993 3.2573 895.346 3.26166C880.091 3.36483 864.836 3.47345 849.58 3.58818C842.203 3.64353 834.826 3.69701 827.448 3.74615C821.02 3.78898 814.593 3.83525 808.165 3.88572C804.759 3.91234 801.354 3.93719 797.948 3.95791C794.153 3.98188 790.357 4.01194 786.562 4.04352C785.424 4.04927 784.287 4.05503 783.116 4.06096C782.088 4.07075 781.06 4.08054 780.001 4.09062C778.653 4.1003 778.653 4.1003 777.277 4.11018C775.253 4.02531 775.253 4.02531 774.249 5.24884C774.16 7.62453 774.134 9.97093 774.151 12.3465C774.153 13.0554 774.154 13.7642 774.155 14.4946C774.161 16.7669 774.174 19.0391 774.186 21.3113C774.191 22.8484 774.196 24.3856 774.2 25.9227C774.211 29.6981 774.228 33.4735 774.249 37.2488C775.508 37.0843 776.768 36.9197 778.065 36.7502C783.454 36.1553 788.769 36.1554 794.185 36.2271C795.767 36.2415 795.767 36.2415 797.381 36.2562C800.838 36.289 804.295 36.3294 807.753 36.3699C810.161 36.3943 812.57 36.4181 814.978 36.4415C821.296 36.5041 827.614 36.5732 833.932 36.6437C840.387 36.7146 846.842 36.7793 853.298 36.8445C865.948 36.9733 878.599 37.1087 891.249 37.2488C891.249 37.9088 891.249 38.5688 891.249 39.2488C851.319 39.2488 811.389 39.2488 770.249 39.2488C770.249 26.3788 770.249 13.5088 770.249 0.24884Z" fill="#C2D026"/>
<path d="M281.249 96.2488C281.579 96.2488 281.909 96.2488 282.249 96.2488C282.249 133.209 282.249 170.169 282.249 208.249C269.049 208.249 255.849 208.249 242.249 208.249C242.249 171.619 242.249 134.989 242.249 97.2488C242.579 97.2488 242.909 97.2488 243.249 97.2488C243.422 106.978 243.589 116.707 243.749 126.436C243.761 127.158 243.773 127.88 243.785 128.623C244.208 154.5 244.369 180.368 244.249 206.249C255.799 206.249 267.349 206.249 279.249 206.249C279.249 178.859 279.249 151.469 279.249 123.249C279.579 123.249 279.909 123.249 280.249 123.249C280.579 114.339 280.909 105.429 281.249 96.2488Z" fill="#55974B"/>
<path d="M770.249 169.249C810.509 169.249 850.769 169.249 892.249 169.249C892.249 169.579 892.249 169.909 892.249 170.249C852.319 170.249 812.389 170.249 771.249 170.249C771.579 177.839 771.909 185.429 772.249 193.249C772.909 193.249 773.569 193.249 774.249 193.249C774.276 195.04 774.295 196.832 774.311 198.624C774.323 199.622 774.335 200.619 774.346 201.647C774.249 204.249 774.249 204.249 773.249 206.249C816.149 205.919 859.049 205.589 903.249 205.249C896.106 208.82 889.103 208.387 881.277 208.362C880.076 208.363 878.876 208.363 877.639 208.363C874.36 208.362 871.082 208.357 867.803 208.35C864.372 208.344 860.941 208.343 857.509 208.342C851.018 208.339 844.526 208.331 838.035 208.321C830.642 208.31 823.249 208.304 815.856 208.299C800.653 208.289 785.451 208.27 770.249 208.249C770.249 195.379 770.249 182.509 770.249 169.249Z" fill="#318252"/>
<path d="M160.249 182.249C160.249 190.829 160.249 199.409 160.249 208.249C150.349 208.249 140.449 208.249 130.249 208.249C156.249 182.249 156.249 182.249 160.249 182.249Z" fill="#57A354"/>
<path d="M731.249 183.249C731.249 191.499 731.249 199.749 731.249 208.249C721.349 208.249 711.449 208.249 701.249 208.249C726.249 183.249 726.249 183.249 731.249 183.249Z" fill="#39925B"/>
<path d="M1192.25 183.249C1192.25 191.499 1192.25 199.749 1192.25 208.249C1182.68 208.249 1173.11 208.249 1163.25 208.249C1166.77 204.028 1169.29 201.19 1173.44 197.936C1178.21 194.125 1182.76 190.139 1187.25 185.999C1190.39 183.249 1190.39 183.249 1192.25 183.249Z" fill="#4D9F56"/>
<path d="M546.249 101.249C546.579 101.249 546.909 101.249 547.249 101.249C547.909 135.899 548.569 170.549 549.249 206.249C560.469 206.249 571.689 206.249 583.249 206.249C583.249 191.069 583.249 175.889 583.249 160.249C583.579 160.249 583.909 160.249 584.249 160.249C584.579 142.759 584.909 125.269 585.249 107.249C585.579 107.249 585.909 107.249 586.249 107.249C586.249 140.579 586.249 173.909 586.249 208.249C573.049 208.249 559.849 208.249 546.249 208.249C546.249 172.939 546.249 137.629 546.249 101.249Z" fill="#52954C"/>
<path d="M1041.25 36.2488C1064.35 36.2488 1087.45 36.2488 1111.25 36.2488C1111.25 48.7888 1111.25 61.3288 1111.25 74.2488C1093.1 74.2488 1074.95 74.2488 1056.25 74.2488C1056.25 73.9188 1056.25 73.5888 1056.25 73.2488C1073.74 73.2488 1091.23 73.2488 1109.25 73.2488C1108.75 67.3088 1108.75 67.3088 1108.25 61.2488C1108.25 53.6588 1108.25 46.0688 1108.25 38.2488C1086.47 38.2488 1064.69 38.2488 1042.25 38.2488C1041.92 37.5888 1041.59 36.9288 1041.25 36.2488Z" fill="#B9D531"/>
<path d="M1080.25 169.249C1090.48 169.249 1100.71 169.249 1111.25 169.249C1111.25 182.119 1111.25 194.989 1111.25 208.249C1105.62 208.311 1099.99 208.373 1094.19 208.436C1092.44 208.464 1090.7 208.491 1088.9 208.519C1069.21 208.699 1052.09 204.589 1036.25 192.249C1040.22 192.249 1042.72 194.077 1046.06 195.999C1053.21 199.957 1060.26 202.424 1068.25 204.249C1069.14 204.473 1070.02 204.697 1070.94 204.929C1077.44 206.376 1083.81 206.408 1090.44 206.263C1096.43 206.148 1102.29 206.619 1108.25 207.249C1108.24 206.336 1108.24 205.423 1108.23 204.482C1108.22 201.081 1108.2 197.68 1108.19 194.279C1108.19 192.809 1108.18 191.34 1108.17 189.871C1108.16 187.753 1108.16 185.636 1108.15 183.518C1108.15 182.246 1108.14 180.973 1108.14 179.662C1108.25 176.249 1108.25 176.249 1109.25 171.249C1100.01 171.249 1090.77 171.249 1081.25 171.249C1080.75 170.259 1080.75 170.259 1080.25 169.249Z" fill="#389461"/>
<path d="M1002.25 0.24884C1015.12 0.24884 1027.99 0.24884 1041.25 0.24884C1041.25 12.1288 1041.25 24.0088 1041.25 36.2488C1040.26 35.7538 1040.26 35.7538 1039.25 35.2488C1039.25 24.6888 1039.25 14.1288 1039.25 3.24884C1028.03 3.57884 1016.81 3.90884 1005.25 4.24884C1004.92 6.88884 1004.59 9.52884 1004.25 12.2488C1003.26 12.7438 1003.26 12.7438 1002.25 13.2488C1002.25 8.95884 1002.25 4.66884 1002.25 0.24884Z" fill="#CFDC24"/>
<path d="M771.249 170.249C809.529 170.249 847.809 170.249 887.249 170.249C887.249 170.579 887.249 170.909 887.249 171.249C878.109 171.382 868.969 171.513 859.83 171.64C855.581 171.699 851.332 171.759 847.084 171.822C842.145 171.894 837.207 171.963 832.268 172.03C831.042 172.047 831.042 172.047 829.792 172.064C820.374 172.191 810.958 172.265 801.539 172.245C800.675 172.243 799.81 172.242 798.919 172.24C794.769 172.23 790.618 172.214 786.468 172.186C784.992 172.18 783.516 172.175 782.041 172.169C780.749 172.16 779.458 172.152 778.127 172.143C775.353 171.918 775.353 171.918 774.249 173.249C774.222 176.834 774.278 180.407 774.376 183.991C774.462 189.929 774.462 189.929 772.249 193.249C769.822 185.969 771.249 177.923 771.249 170.249Z" fill="#64B55D"/>
<path d="M1.24884 83.2488C1.57884 83.2488 1.90884 83.2488 2.24884 83.2488C2.24884 117.899 2.24884 152.549 2.24884 188.249C2.57884 188.249 2.90884 188.249 3.24884 188.249C3.24884 194.519 3.24884 200.789 3.24884 207.249C4.23884 207.579 5.22884 207.909 6.24884 208.249C4.26884 208.249 2.28884 208.249 0.24884 208.249C0.225455 192.984 0.207834 177.72 0.197028 162.456C0.191877 155.368 0.184857 148.28 0.173401 141.192C0.16235 134.351 0.156555 127.511 0.153963 120.67C0.152116 118.061 0.148508 115.452 0.14311 112.842C0.135849 109.187 0.134852 105.531 0.135315 101.876C0.13172 100.797 0.128124 99.7191 0.12442 98.6082C0.131593 93.3774 0.332949 88.4021 1.24884 83.2488Z" fill="#86B035"/>
<path d="M503.249 83.2488C508.584 91.2518 508.529 100.89 509.249 110.249C496.049 110.249 482.849 110.249 469.249 110.249C468.919 106.949 468.589 103.649 468.249 100.249C469.239 100.579 470.229 100.909 471.249 101.249C471.579 103.229 471.909 105.209 472.249 107.249C488.584 107.744 488.584 107.744 505.249 108.249C505.421 101.093 505.421 101.093 504.249 94.6238C503.27 90.7009 503.077 87.2823 503.249 83.2488Z" fill="#799734"/>
<path d="M1232.25 36.2488C1240.83 36.2488 1249.41 36.2488 1258.25 36.2488C1258.25 48.7888 1258.25 61.3288 1258.25 74.2488C1249.67 74.2488 1241.09 74.2488 1232.25 74.2488C1232.25 73.9188 1232.25 73.5888 1232.25 73.2488C1240.17 73.2488 1248.09 73.2488 1256.25 73.2488C1256.06 71.372 1255.88 69.4951 1255.69 67.5613C1254.96 57.7403 1255.67 48.0742 1256.25 38.2488C1248.33 38.2488 1240.41 38.2488 1232.25 38.2488C1232.25 37.5888 1232.25 36.9288 1232.25 36.2488Z" fill="#CBDF2D"/>
<path d="M71.2488 21.2488C71.2488 21.9088 71.2488 22.5688 71.2488 23.2488C70.6688 23.2978 70.0887 23.3468 69.491 23.3973C68.7099 23.472 67.9287 23.5468 67.1238 23.6238C65.9753 23.7282 65.9753 23.7282 64.8035 23.8348C48.108 26.5408 32.5191 38.3796 21.2488 50.2488C20.2316 51.2732 19.2115 52.2948 18.1863 53.3113C17.547 53.9507 16.9076 54.5901 16.2488 55.2488C17.7844 46.6612 27.7211 39.3259 34.2488 34.2488C45.5989 26.7363 57.4075 20.6839 71.2488 21.2488Z" fill="#CED922"/>
<path d="M691.249 107.249C691.579 107.249 691.909 107.249 692.249 107.249C692.264 108.583 692.264 108.583 692.28 109.944C692.379 118.4 692.481 126.857 692.588 135.313C692.643 139.659 692.696 144.004 692.746 148.35C692.795 152.558 692.847 156.766 692.902 160.974C692.922 162.565 692.941 164.156 692.958 165.747C693.077 176.608 693.521 187.412 694.249 198.249C694.909 198.249 695.569 198.249 696.249 198.249C697.239 197.259 697.239 197.259 698.249 196.249C698.249 197.239 698.249 198.229 698.249 199.249C693.906 203.249 693.906 203.249 691.249 203.249C691.249 171.569 691.249 139.889 691.249 107.249Z" fill="#54873E"/>
<path d="M159.249 98.2488C159.579 98.2488 159.909 98.2488 160.249 98.2488C160.318 107.732 160.372 117.216 160.404 126.699C160.42 131.103 160.441 135.506 160.475 139.909C160.508 144.156 160.526 148.403 160.533 152.65C160.539 154.273 160.55 155.895 160.566 157.518C160.588 159.786 160.591 162.053 160.589 164.321C160.596 165.613 160.603 166.905 160.61 168.237C160.431 169.728 160.431 169.728 160.249 171.249C158.764 172.239 158.764 172.239 157.249 173.249C157.909 148.499 158.569 123.749 159.249 98.2488Z" fill="#75AE40"/>
<path d="M1192.25 116.249C1192.58 116.249 1192.91 116.249 1193.25 116.249C1193.38 123.866 1193.46 131.483 1193.52 139.1C1193.55 141.692 1193.58 144.284 1193.63 146.876C1193.69 150.599 1193.72 154.322 1193.74 158.046C1193.76 159.206 1193.79 160.367 1193.82 161.562C1193.82 169.627 1193.82 169.627 1190.72 173.012C1189.5 173.624 1189.5 173.624 1188.25 174.249C1188.82 171.863 1189.47 169.582 1190.25 167.249C1190.33 165.257 1190.36 163.262 1190.35 161.268C1190.34 160.105 1190.34 158.942 1190.34 157.743C1190.33 156.528 1190.32 155.313 1190.31 154.061C1190.31 152.835 1190.3 151.608 1190.3 150.345C1190.29 147.313 1190.27 144.281 1190.25 141.249C1190.58 141.249 1190.91 141.249 1191.25 141.249C1191.58 132.999 1191.91 124.749 1192.25 116.249Z" fill="#70A02F"/>
<path d="M121.249 156.249C121.579 156.249 121.909 156.249 122.249 156.249C123.326 160.686 123.466 165.07 123.565 169.612C123.586 170.404 123.607 171.196 123.628 172.012C123.693 174.528 123.752 177.045 123.811 179.561C123.855 181.273 123.898 182.985 123.942 184.696C124.049 188.88 124.15 193.064 124.249 197.249C126.46 197.354 126.46 197.354 129.249 196.249C127.86 199.605 126.332 201.322 123.249 203.249C122.589 203.249 121.929 203.249 121.249 203.249C121.249 187.739 121.249 172.229 121.249 156.249Z" fill="#5FA454"/>
<path d="M39.2488 170.249C39.5788 170.249 39.9088 170.249 40.2488 170.249C40.2488 182.789 40.2488 195.329 40.2488 208.249C30.0188 208.249 19.7888 208.249 9.24884 208.249C8.91884 207.589 8.58884 206.929 8.24884 206.249C17.4888 206.249 26.7288 206.249 36.2488 206.249C37.8272 203.092 37.3093 199.709 37.2488 196.249C37.1137 188.519 37.1137 188.519 38.2488 186.249C38.4811 183.536 38.6682 180.841 38.8113 178.124C38.8545 177.37 38.8977 176.616 38.9422 175.839C39.0483 173.976 39.1491 172.112 39.2488 170.249Z" fill="#6BAC4E"/>
<path d="M72.2488 20.2488C90.6228 19.7453 106.242 21.2556 122.249 31.2488C121.589 31.9088 120.929 32.5688 120.249 33.2488C119.323 32.634 119.323 32.634 118.378 32.0067C113.408 28.8449 109.142 26.6186 103.327 25.6121C101.249 25.2488 101.249 25.2488 97.8113 24.1863C89.7447 22.0635 81.5429 22.1069 73.2488 22.2488C72.9188 21.5888 72.5888 20.9288 72.2488 20.2488Z" fill="#DADF21"/>
<path d="M1080.25 169.249C1090.48 169.249 1100.71 169.249 1111.25 169.249C1111.4 192.347 1111.4 192.347 1110.25 202.249C1109.92 202.249 1109.59 202.249 1109.25 202.249C1109.05 198.02 1108.87 193.791 1108.69 189.561C1108.63 188.363 1108.57 187.165 1108.52 185.93C1108.44 184.195 1108.44 184.195 1108.37 182.425C1108.32 181.362 1108.28 180.298 1108.23 179.203C1108.25 176.249 1108.25 176.249 1109.25 171.249C1100.01 171.249 1090.77 171.249 1081.25 171.249C1080.92 170.589 1080.59 169.929 1080.25 169.249Z" fill="#4A8F4F"/>
<path d="M39.2488 125.249C39.5788 125.249 39.9088 125.249 40.2488 125.249C40.2739 131.365 40.2919 137.48 40.3038 143.596C40.3087 145.669 40.3155 147.742 40.3243 149.816C40.3744 162.006 40.2333 174.093 39.2488 186.249C38.9188 186.249 38.5888 186.249 38.2488 186.249C38.0799 182.707 37.9141 179.166 37.7488 175.624C37.7011 174.625 37.6534 173.626 37.6043 172.596C37.3824 167.81 37.1834 163.042 37.2488 158.249C37.9088 158.249 38.5688 158.249 39.2488 158.249C39.2488 147.359 39.2488 136.469 39.2488 125.249Z" fill="#87B93A"/>
<path d="M320.249 120.249C332.129 120.249 344.009 120.249 356.249 120.249C352.019 122.364 350.139 122.485 345.514 122.444C344.219 122.438 342.923 122.431 341.589 122.425C340.225 122.408 338.862 122.391 337.499 122.374C336.12 122.364 334.741 122.355 333.362 122.346C329.991 122.323 326.62 122.29 323.249 122.249C323.527 123.394 323.527 123.394 323.811 124.561C324.249 127.249 324.249 127.249 323.249 130.249C323.414 131.218 323.579 132.188 323.749 133.186C324.229 136.128 324.062 137.479 323.249 140.249C322.73 138.797 322.235 137.337 321.749 135.874C321.47 135.062 321.192 134.25 320.905 133.413C320.249 130.249 320.249 130.249 320.249 120.249Z" fill="#97CB45"/>
<path d="M947.249 158.249C949.119 163.173 946.841 167.093 944.968 171.725C940.735 180.403 934.348 187.766 927.249 194.249C926.919 193.589 926.589 192.929 926.249 192.249C927.2 191.076 928.16 189.911 929.124 188.749C929.658 188.099 930.191 187.449 930.741 186.78C931.239 186.275 931.736 185.769 932.249 185.249C932.909 185.249 933.569 185.249 934.249 185.249C934.636 184.472 934.636 184.472 935.03 183.679C935.98 181.784 936.941 179.894 937.905 178.007C938.52 176.796 939.134 175.585 939.749 174.374C940.211 173.475 940.211 173.475 940.682 172.557C942.549 168.864 944.039 165.206 945.249 161.249C945.909 161.249 946.569 161.249 947.249 161.249C947.249 160.259 947.249 159.269 947.249 158.249Z" fill="#4D904B"/>
<path d="M630.249 21.2488C645.779 20.7226 658.76 21.27 673.249 27.2488C673.249 27.9088 673.249 28.5688 673.249 29.2488C672.323 28.9588 672.323 28.9588 671.378 28.6629C659.159 24.9062 648.039 23.066 635.225 23.409C632.249 23.2488 632.249 23.2488 630.249 21.2488Z" fill="#CFE02C"/>
<path d="M910.249 141.249C911.239 141.249 912.229 141.249 913.249 141.249C913.08 150.305 911.945 157.363 905.503 164.065C901.773 167.394 898.411 170.249 893.249 170.249C893.249 169.589 893.249 168.929 893.249 168.249C894.445 167.733 895.641 167.218 896.874 166.686C902.204 164.021 905.809 160.269 908.374 154.889C909.326 152.017 909.656 149.451 909.874 146.436C909.949 145.461 910.023 144.485 910.1 143.479C910.149 142.743 910.198 142.007 910.249 141.249Z" fill="#67A648"/>
<path d="M946.249 49.2488C946.579 49.9088 946.909 50.5688 947.249 51.2488C947.909 51.2488 948.569 51.2488 949.249 51.2488C950.015 72.7808 950.015 72.7808 945.249 83.2488C944.261 80.1535 944.314 78.3519 945.186 75.2488C947.094 66.7743 946.412 57.8831 946.249 49.2488Z" fill="#9CBF2B"/>
<path d="M596.249 30.2488C597.239 30.5788 598.229 30.9088 599.249 31.2488C598.689 31.5543 598.13 31.8599 597.554 32.1746C586.731 38.3515 576.754 46.1359 568.249 55.2488C568.249 51.616 569.362 50.7024 571.806 48.1739C572.323 47.6624 572.841 47.1509 573.374 46.6238C573.903 46.0962 574.432 45.5686 574.977 45.025C581.219 39.0148 588.498 34.1245 596.249 30.2488Z" fill="#B6D02E"/>
<path d="M406.768 20.1512C407.79 20.1544 408.812 20.1576 409.864 20.1609C410.919 20.1693 411.974 20.1777 413.061 20.1863C414.136 20.1908 415.21 20.1954 416.317 20.2C418.961 20.2117 421.605 20.2282 424.249 20.2488C424.579 20.9088 424.909 21.5688 425.249 22.2488C422.124 22.4198 418.999 22.5848 415.874 22.7488C415.004 22.7965 414.134 22.8442 413.237 22.8934C407.235 23.2046 401.258 23.3071 395.249 23.2488C395.579 22.5888 395.909 21.9288 396.249 21.2488C399.774 20.2649 403.124 20.1308 406.768 20.1512Z" fill="#BCCB23"/>
<path d="M441.249 205.249C429.854 208.268 419.097 210.137 407.249 209.249C406.259 208.589 405.269 207.929 404.249 207.249C404.822 207.229 405.395 207.209 405.986 207.189C420.568 206.721 420.568 206.721 434.971 204.554C437.378 204.232 438.959 204.498 441.249 205.249Z" fill="#3C9560"/>
<path d="M898.249 2.24884C908.48 1.6123 918.17 7.5424 925.772 13.9285C926.503 14.5821 926.503 14.5821 927.249 15.2488C926.589 15.9088 925.929 16.5688 925.249 17.2488C924.375 16.4522 924.375 16.4522 923.483 15.6395C915.768 8.99202 908.171 6.11046 898.249 4.24884C898.249 3.58884 898.249 2.92884 898.249 2.24884Z" fill="#CDD824"/>
<path d="M1257.25 56.2488C1257.58 56.2488 1257.91 56.2488 1258.25 56.2488C1258.25 62.1888 1258.25 68.1288 1258.25 74.2488C1249.67 74.2488 1241.09 74.2488 1232.25 74.2488C1232.25 73.9188 1232.25 73.5888 1232.25 73.2488C1240.17 73.2488 1248.09 73.2488 1256.25 73.2488C1256.04 71.0007 1255.84 68.7526 1255.62 66.4363C1255 59.6238 1255 59.6238 1257.25 56.2488Z" fill="#BDDB30"/>
<path d="M934.249 23.2488C940.49 28.7557 945.286 35.4356 946.124 43.8738C946.191 45.3312 946.243 46.7899 946.249 48.2488C944.842 45.4977 943.581 42.7174 942.374 39.8738C941.119 37.0052 939.803 34.4326 937.999 31.8738C936.249 29.2488 936.249 29.2488 936.249 26.2488C935.589 26.2488 934.929 26.2488 934.249 26.2488C934.249 25.2588 934.249 24.2688 934.249 23.2488Z" fill="#AEC428"/>
<path d="M6.24884 72.2488C7.37419 75.6249 6.83732 76.8653 5.7879 80.1395C4.94893 83.4224 4.79926 86.7382 4.59259 90.1121C4.24884 92.2488 4.24884 92.2488 2.24884 94.2488C1.02053 90.5639 1.46334 88.2116 1.99884 84.3738C2.15868 83.1595 2.31852 81.9452 2.48321 80.6942C3.23865 77.2947 4.28152 75.0917 6.24884 72.2488Z" fill="#B6CC28"/>
<path d="M193.249 20.2488C204.007 19.945 213.905 19.7802 224.249 23.2488C221.013 24.2594 218.419 24.2408 215.061 23.8738C214.181 23.7836 213.3 23.6934 212.393 23.6004C210.249 23.2488 210.249 23.2488 209.249 22.2488C206.552 22.1756 203.882 22.1564 201.186 22.1863C200.048 22.1931 200.048 22.1931 198.888 22.2C197.008 22.2118 195.128 22.2298 193.249 22.2488C193.249 21.5888 193.249 20.9288 193.249 20.2488Z" fill="#D6E328"/>
<path d="M730.249 183.249C730.249 189.189 730.249 195.129 730.249 201.249C729.919 201.249 729.589 201.249 729.249 201.249C728.919 196.959 728.589 192.669 728.249 188.249C726.269 189.569 724.289 190.889 722.249 192.249C722.249 189.249 722.249 189.249 723.745 187.643C724.386 187.121 725.026 186.599 725.686 186.061C726.324 185.532 726.963 185.002 727.62 184.456C729.249 183.249 729.249 183.249 730.249 183.249Z" fill="#4AA35D"/>
<path d="M596.249 77.2488C596.909 77.2488 597.569 77.2488 598.249 77.2488C595.943 81.9769 593.348 86.5501 590.807 91.1551C589.57 93.6119 588.728 95.5701 588.249 98.2488C587.589 98.2488 586.929 98.2488 586.249 98.2488C586.805 93.5599 588.131 90.0496 590.311 85.8738C590.859 84.8142 591.407 83.7546 591.971 82.6629C592.393 81.8663 592.815 81.0696 593.249 80.2488C593.909 80.2488 594.569 80.2488 595.249 80.2488C595.579 79.2588 595.909 78.2688 596.249 77.2488Z" fill="#A7CB33"/>
<path d="M771.249 190.249C771.579 191.239 771.909 192.229 772.249 193.249C772.909 193.249 773.569 193.249 774.249 193.249C774.276 195.04 774.295 196.832 774.311 198.624C774.323 199.622 774.335 200.619 774.346 201.647C774.249 204.249 774.249 204.249 773.249 206.249C774.569 206.579 775.889 206.909 777.249 207.249C775.269 207.249 773.289 207.249 771.249 207.249C771.249 201.639 771.249 196.029 771.249 190.249Z" fill="#43A268"/>
<path d="M771.249 170.249C771.579 170.249 771.909 170.249 772.249 170.249C772.309 170.852 772.37 171.455 772.432 172.077C772.516 172.876 772.6 173.675 772.686 174.499C772.768 175.288 772.849 176.077 772.932 176.889C773.199 179.218 773.199 179.218 773.772 181.323C774.519 184.341 774.417 187.16 774.249 190.249C773.589 191.239 772.929 192.229 772.249 193.249C771.288 190.366 771.132 188.572 771.151 185.581C771.154 184.688 771.158 183.796 771.161 182.876C771.169 181.947 771.178 181.018 771.186 180.061C771.191 179.121 771.195 178.181 771.2 177.212C771.212 174.891 771.228 172.57 771.249 170.249Z" fill="#56AC5E"/>
<path d="M133.249 204.249C134.239 204.909 135.229 205.569 136.249 206.249C138.666 206.615 138.666 206.615 141.354 206.663C142.337 206.702 143.32 206.74 144.333 206.78C145.869 206.826 145.869 206.826 147.436 206.874C148.472 206.913 149.508 206.951 150.575 206.991C153.133 207.085 155.691 207.171 158.249 207.249C158.249 207.579 158.249 207.909 158.249 208.249C149.009 208.249 139.769 208.249 130.249 208.249C131.239 206.929 132.229 205.609 133.249 204.249Z" fill="#4A9955"/>
<path d="M692.249 181.249C692.579 181.249 692.909 181.249 693.249 181.249C693.579 186.859 693.909 192.469 694.249 198.249C694.909 198.249 695.569 198.249 696.249 198.249C696.909 197.589 697.569 196.929 698.249 196.249C698.249 197.239 698.249 198.229 698.249 199.249C696.269 200.569 694.289 201.889 692.249 203.249C692.249 195.989 692.249 188.729 692.249 181.249Z" fill="#47A462"/>
<path d="M1215.25 39.2488C1214.92 40.2388 1214.59 41.2288 1214.25 42.2488C1211.56 43.3113 1211.56 43.3113 1208.25 44.2488C1207.14 44.6201 1206.02 44.9913 1204.87 45.3738C1204.01 45.6626 1203.14 45.9513 1202.25 46.2488C1201.59 45.5888 1200.93 44.9288 1200.25 44.2488C1202.18 43.409 1204.12 42.5772 1206.06 41.7488C1207.14 41.2848 1208.22 40.8207 1209.33 40.3426C1212.25 39.2488 1212.25 39.2488 1215.25 39.2488Z" fill="#AABE22"/>
<path d="M771.249 1.24884C772.239 1.74384 772.239 1.74384 773.249 2.24884C773.733 4.83087 773.733 4.83087 773.999 8.06134C774.097 9.11966 774.195 10.178 774.296 11.2684C774.249 14.2668 773.825 15.7457 772.249 18.2488C771.919 18.2488 771.589 18.2488 771.249 18.2488C771.249 12.6388 771.249 7.02884 771.249 1.24884Z" fill="#DCEA2D"/>
<path d="M936.249 181.249C936.579 181.909 936.909 182.569 937.249 183.249C936.171 184.524 935.086 185.794 933.999 187.061C933.396 187.769 932.792 188.477 932.171 189.206C930.325 191.168 928.449 192.706 926.249 194.249C927.555 190.33 929.08 187.922 932.249 185.249C932.909 185.249 933.569 185.249 934.249 185.249C934.909 183.929 935.569 182.609 936.249 181.249Z" fill="#469A5C"/>
<path d="M905.249 160.249C905.579 161.239 905.909 162.229 906.249 163.249C898.144 170.249 898.144 170.249 893.249 170.249C893.249 169.589 893.249 168.929 893.249 168.249C894.045 167.885 894.045 167.885 894.858 167.514C898.989 165.555 902.22 163.783 905.249 160.249Z" fill="#579C4C"/>
<path d="M1003.25 136.249C1004.24 136.744 1004.24 136.744 1005.25 137.249C1006.05 139.939 1006.74 142.581 1007.37 145.311C1007.56 146.07 1007.74 146.829 1007.92 147.61C1008.37 149.488 1008.81 151.368 1009.25 153.249C1008.59 153.579 1007.93 153.909 1007.25 154.249C1006.57 152.189 1005.91 150.126 1005.25 148.061C1004.88 146.913 1004.51 145.764 1004.12 144.581C1003.34 141.606 1003.07 139.296 1003.25 136.249Z" fill="#72A745"/>
<path d="M628.249 22.2488C625.096 24.0301 622.25 24.7343 618.686 25.3113C615.732 25.7964 613.095 26.3 610.249 27.2488C610.579 26.2588 610.909 25.2688 611.249 24.2488C616.889 21.9686 622.229 22.0308 628.249 22.2488Z" fill="#C0D32A"/>
<path d="M469.249 120.249C470.239 120.249 471.229 120.249 472.249 120.249C471.769 124.963 471.281 128.915 469.249 133.249C468.919 133.249 468.589 133.249 468.249 133.249C468.172 128.733 468.147 124.658 469.249 120.249Z" fill="#8EC041"/>
<path d="M503.249 83.2488C506.023 87.4102 507.434 90.5793 506.874 95.6238C506.668 96.4901 506.461 97.3563 506.249 98.2488C503.486 93.0922 503.136 89.1198 503.249 83.2488Z" fill="#89AD30"/>
<path d="M266.249 56.2488C269.65 57.628 270.945 58.875 272.499 62.1863C272.834 62.876 273.169 63.5656 273.514 64.2762C274.249 66.2488 274.249 66.2488 274.249 69.2488C273.589 69.2488 272.929 69.2488 272.249 69.2488C271.878 68.197 271.878 68.197 271.499 67.1238C270.284 64.0981 270.284 64.0981 268.124 61.0613C266.249 58.2488 266.249 58.2488 266.249 56.2488Z" fill="#B3D22D"/>
<path d="M10.2488 61.2488C11.2388 61.2488 12.2288 61.2488 13.2488 61.2488C12.1394 64.7355 10.9855 68.0237 9.24884 71.2488C8.58884 71.2488 7.92884 71.2488 7.24884 71.2488C7.75596 67.53 8.36492 64.5143 10.2488 61.2488Z" fill="#BED028"/>
<path d="M177.249 24.2488C177.249 24.9088 177.249 25.5688 177.249 26.2488C170.749 29.2488 170.749 29.2488 166.249 29.2488C166.249 28.5888 166.249 27.9288 166.249 27.2488C172.749 24.2488 172.749 24.2488 177.249 24.2488Z" fill="#C6D729"/>
<path d="M657.249 23.2488C663.117 23.7728 667.798 25.0099 673.249 27.2488C673.249 27.9088 673.249 28.5688 673.249 29.2488C672.597 29.0439 671.944 28.8389 671.272 28.6277C666.614 27.1918 662.097 25.8868 657.249 25.2488C657.249 24.5888 657.249 23.9288 657.249 23.2488Z" fill="#CDE231"/>
<path d="M1110.25 190.249C1110.58 190.249 1110.91 190.249 1111.25 190.249C1111.25 196.189 1111.25 202.129 1111.25 208.249C1110.26 207.919 1109.27 207.589 1108.25 207.249C1108.91 201.639 1109.57 196.029 1110.25 190.249Z" fill="#338959"/>
<path d="M467.249 129.249C467.579 129.249 467.909 129.249 468.249 129.249C468.54 134.207 468.378 137.277 465.249 141.249C464.589 141.249 463.929 141.249 463.249 141.249C464.582 137.249 465.916 133.249 467.249 129.249Z" fill="#75A33E"/>
<path d="M819.249 85.2488C819.909 85.5788 820.569 85.9088 821.249 86.2488C820.259 89.2188 819.269 92.1888 818.249 95.2488C817.589 95.2488 816.929 95.2488 816.249 95.2488C816.756 91.53 817.365 88.5143 819.249 85.2488Z" fill="#99BF35"/>
<path d="M2.24883 81.2488C2.90883 81.2488 3.56883 81.2488 4.24883 81.2488C4.30275 83.0402 4.34159 84.832 4.37383 86.6238C4.39704 87.6216 4.42024 88.6193 4.44415 89.6473C4.24883 92.2488 4.24883 92.2488 2.24883 94.2488C1.18211 91.0487 1.30038 89.3634 1.68633 86.0613C1.78817 85.1603 1.89001 84.2592 1.99493 83.3309C2.07872 82.6438 2.16251 81.9567 2.24883 81.2488Z" fill="#C2D730"/>
<path d="M156.249 33.2488C157.239 33.5788 158.229 33.9088 159.249 34.2488C158.18 35.2847 157.093 36.3022 155.999 37.3113C155.094 38.1641 155.094 38.1641 154.171 39.034C152.249 40.2488 152.249 40.2488 150.014 39.9324C149.432 39.7068 148.849 39.4813 148.249 39.2488C149.51 38.2156 150.783 37.1976 152.061 36.1863C152.769 35.6179 153.477 35.0494 154.206 34.4637C154.88 34.0628 155.554 33.6619 156.249 33.2488Z" fill="#BFD52A"/>
<path d="M187.436 21.1863C188.337 21.1954 189.238 21.2044 190.167 21.2137C190.854 21.2253 191.541 21.2369 192.249 21.2488C187.739 23.6871 183.359 24.2488 178.249 24.2488C180.121 20.5038 183.715 21.138 187.436 21.1863Z" fill="#C8D726"/>
<path d="M253.249 40.2488C257.044 41.7398 258.859 44.0058 261.249 47.2488C260.259 47.7438 260.259 47.7438 259.249 48.2488C254.374 43.6238 254.374 43.6238 253.249 40.2488Z" fill="#B3CA29"/>
<path d="M147.249 40.2488C148.239 40.5788 149.229 40.9088 150.249 41.2488C149.349 42.2842 148.428 43.3018 147.499 44.3113C146.733 45.1641 146.733 45.1641 145.952 46.034C144.249 47.2488 144.249 47.2488 142.046 46.9324C141.453 46.7068 140.86 46.4813 140.249 46.2488C141.342 45.2159 142.449 44.1978 143.561 43.1863C144.176 42.6179 144.791 42.0494 145.425 41.4637C146.328 40.8623 146.328 40.8623 147.249 40.2488Z" fill="#A9BD27"/>
<path d="M110.249 26.2488C115.004 26.8252 118.219 28.7995 122.249 31.2488C121.589 31.9088 120.929 32.5688 120.249 33.2488C118.58 32.2741 116.913 31.2939 115.249 30.3113C114.321 29.7661 113.393 29.2208 112.436 28.659C111.714 28.1936 110.993 27.7283 110.249 27.2488C110.249 26.9188 110.249 26.5888 110.249 26.2488Z" fill="#D5DF24"/>
<path d="M381.249 202.249C385.336 202.008 388.426 202.826 392.249 204.249C392.249 204.909 392.249 205.569 392.249 206.249C388.3 205.698 384.9 204.86 381.249 203.249C381.249 202.919 381.249 202.589 381.249 202.249Z" fill="#469760"/>
<path d="M362.249 89.2488C362.909 89.2488 363.569 89.2488 364.249 89.2488C362.764 94.6938 362.764 94.6938 361.249 100.249C360.589 99.9188 359.929 99.5888 359.249 99.2488C359.859 95.691 360.827 92.566 362.249 89.2488Z" fill="#95B92D"/>
<path d="M1197.25 46.2488C1197.91 46.9088 1198.57 47.5688 1199.25 48.2488C1192.62 52.1238 1192.62 52.1238 1189.25 53.2488C1190.71 48.8573 1193.23 48.3694 1197.25 46.2488Z" fill="#BAD329"/>
<path d="M701.249 46.2488C705.523 47.8319 707.514 50.7545 710.249 54.2488C706 53.7768 703.981 51.3601 701.249 48.2488C701.249 47.5888 701.249 46.9288 701.249 46.2488Z" fill="#ADC92C"/>
<path d="M1232.25 36.2488C1230.81 37.8113 1230.81 37.8113 1228.25 39.2488C1225.2 39.2173 1222.25 38.7815 1219.25 38.2488C1219.25 37.9188 1219.25 37.5888 1219.25 37.2488C1223.66 36.1466 1227.73 36.1723 1232.25 36.2488Z" fill="#A4B620"/>
<path d="M647.249 21.2488C650.879 21.5788 654.509 21.9088 658.249 22.2488C656.249 24.2488 656.249 24.2488 653.311 24.5613C650.249 24.2488 650.249 24.2488 647.249 21.2488Z" fill="#C0D127"/>
<path d="M321.249 121.249C321.909 121.579 322.569 121.909 323.249 122.249C323.874 124.811 323.874 124.811 324.249 127.249C322.929 128.239 321.609 129.229 320.249 130.249C320.151 124.096 320.151 124.096 320.249 122.249C320.579 121.919 320.909 121.589 321.249 121.249Z" fill="#89BA3B"/>
<path d="M145.249 180.249C146.239 180.579 147.229 180.909 148.249 181.249C144.784 184.219 144.784 184.219 141.249 187.249C141.561 184.874 141.561 184.874 142.249 182.249C143.239 181.589 144.229 180.929 145.249 180.249Z" fill="#5F9F55"/>
<path d="M154.249 173.249C155.239 173.579 156.229 173.909 157.249 174.249C154.609 176.229 151.969 178.209 149.249 180.249C150.249 176.249 150.249 176.249 152.124 174.436C152.825 174.044 153.526 173.653 154.249 173.249Z" fill="#61A252"/>
<path d="M468.249 100.249C469.239 100.579 470.229 100.909 471.249 101.249C470.919 103.889 470.589 106.529 470.249 109.249C467.959 105.814 468.07 104.264 468.249 100.249Z" fill="#95B83C"/>
<path d="M506.249 96.2488C506.579 96.2488 506.909 96.2488 507.249 96.2488C507.579 100.209 507.909 104.169 508.249 108.249C507.259 108.249 506.269 108.249 505.249 108.249C505.222 106.624 505.202 104.999 505.186 103.374C505.175 102.469 505.163 101.564 505.151 100.632C505.249 98.2488 505.249 98.2488 506.249 96.2488Z" fill="#9CC83F"/>
<path d="M61.2488 24.2488C58.16 26.3081 57.5395 26.4879 54.0613 26.3738C52.1742 26.312 52.1742 26.312 50.2488 26.2488C54.6818 23.2935 56.0377 23.2293 61.2488 24.2488Z" fill="#BFC31B"/>
<path d="M898.249 2.24884C903.664 1.87961 903.664 1.87961 906.624 3.74884C907.16 4.24384 907.696 4.73884 908.249 5.24884C904.589 6.46878 903.668 5.73911 900.249 4.24884C899.589 4.24884 898.929 4.24884 898.249 4.24884C898.249 3.58884 898.249 2.92884 898.249 2.24884Z" fill="#D7E124"/>
<path d="M809.249 106.249C810.282 109.037 810.294 110.117 809.311 112.999C808.961 113.741 808.61 114.484 808.249 115.249C807.589 114.919 806.929 114.589 806.249 114.249C808.124 108.499 808.124 108.499 809.249 106.249Z" fill="#82AC35"/>
<path d="M89.2488 60.2488C96.7565 59.8796 96.7565 59.8796 99.2488 61.7488C99.7438 62.4913 99.7438 62.4913 100.249 63.2488C96.1928 62.7808 92.783 62.3693 89.2488 60.2488Z" fill="#B3C22D"/>
</svg>
